<!DOCTYPE svg PUBLIC "-//W3C//DTD SVG 20010904//EN" "http://www.w3.org/TR/2001/REC-SVG-20010904/DTD/svg10.dtd">
<svg version="1.0" xmlns="http://www.w3.org/2000/svg" width="30px" height="28px" viewBox="0 0 300 280" preserveAspectRatio="xMidYMid meet">
<g id="layer1" fill="#f1706b" stroke="none">
 <path d="M13 273 c-7 -2 -13 -17 -13 -33 0 -22 7 -31 36 -45 27 -12 34 -21 29 -33 -29 -69 -30 -73 -14 -100 38 -69 138 -18 110 57 -5 14 -12 33 -16 42 -4 12 4 22 29 37 39 23 50 65 20 76 -19 7 -163 7 -181 -1z"/>
 <path d="M214 216 c-3 -8 -19 -20 -35 -27 -22 -8 -28 -16 -23 -28 29 -69 29 -72 11 -103 -22 -38 -9 -58 39 -58 50 0 69 46 40 101 -13 25 -12 27 20 43 43 20 48 61 8 76 -35 14 -54 12 -60 -4z"/>
 </g>

</svg>