<!DOCTYPE svg PUBLIC "-//W3C//DTD SVG 20010904//EN" "http://www.w3.org/TR/2001/REC-SVG-20010904/DTD/svg10.dtd">
<svg version="1.0" xmlns="http://www.w3.org/2000/svg" width="28px" height="30px" viewBox="0 0 280 300" preserveAspectRatio="xMidYMid meet">
<g id="layer1" fill="#f1706b" stroke="none">
 <path d="M39 261 l-38 -38 0 -112 c1 -61 3 -111 5 -111 2 0 13 9 23 19 18 18 21 18 65 3 43 -16 49 -16 92 0 44 15 47 15 65 -3 10 -10 21 -19 23 -19 2 0 4 50 5 111 l0 112 -38 38 c-37 37 -42 39 -101 39 -59 0 -64 -2 -101 -39z m142 -31 c31 -17 21 -30 -11 -14 -27 14 -33 14 -60 0 -32 -15 -42 -4 -12 13 22 13 58 14 83 1z m-67 -99 c3 -5 -1 -14 -8 -20 -12 -10 -14 -9 -11 6 2 10 4 19 4 21 2 5 10 2 15 -7z m72 -17 c2 -12 -1 -13 -12 -3 -7 6 -11 16 -8 21 7 11 17 3 20 -18z"/>
 </g>

</svg>